<svg width="698" height="468" fill="none" xmlns="http://www.w3.org/2000/svg"><path fill-rule="evenodd" clip-rule="evenodd" d="M419.577.35L706 190.964v11.071l-2.524 1.683a.995.995 0 01-.476.648v48.516l4-2v12.248L281.407 467.154 96.513 338.572l-9.104 4.064-61.47-40.291 9.434-4.328-27.68-18.352-.116-.28L8.5 279l-.923.385v-.002l-.007-.015-.017-.042-.065-.161a46.343 46.343 0 01-.244-.62 81.436 81.436 0 01-.86-2.356 115.4 115.4 0 01-2.601-8.559C1.894 260.452 0 250.613 0 240s1.894-20.329 3.784-27.384a109.203 109.203 0 012.602-8.39c.356-.995.653-1.771.862-2.3a38.3 38.3 0 01.309-.763l.017-.041.005-.011.002-.004.919.393-.92-.393.148-.343L419.577.35zM10.499 201.64L419.423 2.65l283.543 188.697-421.357 196.998c-44.934-32.413-112.914-79.225-169.733-117.984a22048.896 22048.896 0 00-72.792-49.432c-9.289-6.28-16.795-11.345-21.98-14.839-2.591-1.748-4.603-3.102-5.967-4.02l-.638-.43zM704 193.071L281.391 390.655l-.476-.344C236.01 357.903 167.77 310.91 110.749 272.014a21929.164 21929.164 0 00-94.762-64.266 7983.486 7983.486 0 00-5.966-4.019l-1.054-.709a75.277 75.277 0 00-.697 1.879 107.06 107.06 0 00-2.554 8.235C3.856 220.079 2 229.613 2 240s1.856 20.048 3.717 27.121c.93 3.533 1.86 6.414 2.555 8.409a78.456 78.456 0 001.039 2.808l28.201 18.698 6.92-3.175L12 273.046v-58.943l269.095 184.25L701 203.095v-.13l3-2v-7.894zm-3 12.229L280.905 400.647 14 217.897v54.057l32.591 20.916 28.355-13.009-21.997-14.526a1 1 0 011.102-1.669l23.487 15.51.028.018 59.758 39.463.027.018 22.7 14.991a1 1 0 01-1.102 1.669l-22.257-14.698-28.894 12.898L281.1 454.35 705 256.863v-2.745l-4 2v-2.784L280.421 448.407a1 1 0 11-.842-1.814L701 251.13v-7.796L280.421 438.407a1 1 0 11-.842-1.814L701 241.13v-6.796L280.421 429.407a1 1 0 11-.842-1.814L701 232.13v-7.296L280.421 419.907a1 1 0 11-.842-1.814L701 222.63v-7.296L280.421 410.407a1 1 0 11-.842-1.814L701 213.13v-7.83zm4 53.769L280.9 456.65 105.666 334.486l-7.02 3.133 182.947 127.228L705 261.87v-2.801zM134.713 319.33l-57.8-38.171-46.852 21.496 57.53 37.709 47.122-21.034zM409.592 34.345l71.459 49.82.021.015 158.979 104.986-.927 1.761c-6.121-2.482-16.291-5.938-26.86-8.225-10.614-2.295-21.446-3.368-28.993-1.24-14.902 4.204-47.351 18.9-63.479 26.554l36.744 25.166-266.121 119.452-77.275-49.64 1.325-.839c2.4-1.52 6.426-4.873 10.297-9.439 3.87-4.564 7.527-10.271 9.275-16.487.758-2.693-.578-6.125-3.8-10.118-3.176-3.935-7.969-8.149-13.517-12.298-10.912-8.16-24.558-15.938-33.973-20.695l-43.323 21.537-23.475-15.84-.008-.006-54.457-35.941 89.082-43.269 83.997-40.498.003-.002 89.497-43.498 85.529-41.256zm108.119 174.669c-9.09 4.58-22.122 10.779-35.138 16.221-13.105 5.48-26.283 10.231-35.409 11.751-.77.129-1.558.267-2.364.408-5.744 1.004-12.412 2.17-20.276 1.264-8.882-1.023-19.234-4.673-31.636-13.989-8.94 4.317-22.859 7.484-37.065 7.896-14.491.421-29.496-2.02-39.894-9.244l-46.421-32.25-.404-.281-.177-.123-.01-.007-17.47 8.734-.007.004-23.941 11.736 77.038 51.525-87.465 40.484 73.513 47.223 261.879-117.548-34.753-23.804zm-295.87 89.718l78.622-36.391-75.04-50.189-40.436 19.863c9.404 4.831 22.405 12.324 32.931 20.197 5.6 4.188 10.547 8.518 13.875 12.643 3.281 4.066 5.212 8.209 4.17 11.916-1.852 6.585-5.695 12.544-9.675 17.238a62.425 62.425 0 01-4.447 4.723zm173.03-75.081c11.809 8.703 21.584 12.064 29.881 13.02 7.558.871 13.936-.242 19.687-1.245.811-.142 1.609-.281 2.397-.412 8.874-1.479 21.863-6.145 34.966-11.624 13.077-5.468 26.18-11.707 35.247-16.283l.01-.005.01-.004c15.311-7.323 49.96-23.132 65.66-27.56 8.053-2.272 19.305-1.095 29.957 1.21 6.835 1.478 13.499 3.438 19.041 5.317l-71.749-47.381c-5.274 3.175-13.189 7.175-22.183 10.461l-66.4 31.512-73.497-52.997-42.409 20.49 44.576 30.525c6.34 4.342 10.178 8.881 12.044 13.434 1.873 4.572 1.722 9.067.246 13.222-2.749 7.743-10.082 14.295-17.484 18.32zm5.051-96.998l71.683 51.69 53.243-25.268c-11.133 2.654-22.856 3.441-32.69-.135-11.118-4.043-24.158-11.739-35.905-19.677-11.443-7.732-21.719-15.734-27.893-20.916l-28.438 14.306zm30.385-15.285c6.183 5.146 16.084 12.817 27.065 20.238 11.711 7.913 24.588 15.497 35.47 19.454 10.7 3.891 23.99 2.376 36.38-1.208 2.661-.77 5.273-1.633 7.799-2.554l20.948-9.941-77.537-51.203-50.125 25.214zm48.245-26.507l-69.144-48.206L324.934 77.4l-89.497 43.498-.003.002-83.997 40.499-85.92 41.732 51.542 34.019 22.517 15.194 42.729-21.24.004-.003 68.244-33.496.007-.004 17.997-8.999 41.5-20.5.004-.002 43-21 44.49-21.494.014-.007 80.987-40.74zm-125.136 64.293l-42.473 20.743-.004.002-39.976 19.747.003.003 46.105 32.03c9.885 6.868 24.381 9.302 38.694 8.887 14.298-.415 28.201-3.667 36.788-7.96 7.634-3.817 15.235-10.389 17.918-17.944 1.328-3.742 1.454-7.726-.213-11.794-1.675-4.087-5.196-8.347-11.323-12.543l-45.331-31.041-.016-.011-.015-.011-.103-.071-.053-.036-.001-.001z" fill="#09F"/><path fill-rule="evenodd" clip-rule="evenodd" d="M213.685 362.421a1 1 0 00.236 1.394l65.5 46.5a1 1 0 101.158-1.63l-65.5-46.5a1 1 0 00-1.394.236zm0 9.5a1 1 0 00.236 1.394l65.5 46.5a1 1 0 101.158-1.63l-65.5-46.5a1 1 0 00-1.394.236zm0 9.5a1 1 0 00.236 1.394l65.5 46.5a1 1 0 101.158-1.63l-65.5-46.5a1 1 0 00-1.394.236zm0 9a1 1 0 00.236 1.394l65.5 46.5a1 1 0 101.158-1.63l-65.5-46.5a1 1 0 00-1.394.236zm0 10a1 1 0 00.236 1.394l65.5 46.5a1 1 0 101.158-1.63l-65.5-46.5a1 1 0 00-1.394.236z" fill="url(#paint0_linear_3153_7798)"/><path fill-rule="evenodd" clip-rule="evenodd" d="M93.276 200.302L401.494 50.997l53.071 36.513-308.218 149.304-53.07-36.512zm3.448.261l49.775 34.246 59.484-28.815-49.776-34.245-59.483 28.814zm61.283-29.686l49.776 34.245 59.483-28.814-49.775-34.246-59.484 28.815zm61.284-29.687l49.775 34.246 59.484-28.815-49.775-34.245-59.484 28.814zm61.283-29.686l49.776 34.245 59.483-28.814-49.775-34.246-59.484 28.815zm61.284-29.687l49.775 34.246 59.484-28.815-49.775-34.245-59.484 28.814z" fill="#09F"/><path d="M160.774 198.233l8.525-4.129 14.974 10.302c-.677 2.1-2.051 4.126-4.123 6.077-2.071 1.952-4.566 3.634-7.484 5.048-4.186 2.027-8.757 3.294-13.715 3.8-4.993.481-9.89.196-14.693-.857-4.799-1.096-9.026-2.902-12.682-5.417-3.655-2.515-5.984-5.22-6.984-8.114-.998-2.938-.616-5.781 1.146-8.53 1.727-2.774 4.703-5.184 8.927-7.23a40.634 40.634 0 0111.253-3.535c3.97-.645 7.97-.728 12.003-.25l-.929 6.384c-5.657-.516-10.52.213-14.59 2.184-2.573 1.246-4.366 2.692-5.378 4.336-1.013 1.645-1.179 3.353-.5 5.126.679 1.773 2.178 3.457 4.498 5.053 2.285 1.572 4.881 2.705 7.787 3.399a27.82 27.82 0 008.826.67c2.981-.29 5.739-1.049 8.273-2.276 2.688-1.302 4.58-2.837 5.675-4.604l-10.809-7.437zm71.858-11.717c-5.759 2.79-11.711 3.962-17.854 3.518-6.104-.464-11.863-2.558-17.277-6.282l-20.668-14.22 9.331-4.52 20.352 14.002c6.608 4.547 12.908 5.369 18.898 2.468 2.918-1.414 4.354-3.037 4.308-4.869-.081-1.857-1.826-3.958-5.235-6.304l-20.353-14.002 9.216-4.464 20.669 14.22c5.413 3.724 7.965 7.371 7.657 10.941-.269 3.551-3.284 6.722-9.044 9.512zm18.793-54.568l9.331-4.52 36.908 25.393-9.331 4.52-36.908-25.393zm46.656-21.052l18.317-8.873a42.67 42.67 0 0113.897-4.012c4.89-.597 9.646-.386 14.266.631 4.658 1 8.833 2.769 12.524 5.308 3.691 2.539 5.984 5.22 6.879 8.042.934 2.803.484 5.555-1.348 8.256-1.829 2.659-4.932 5.048-9.31 7.168l-18.316 8.873-36.909-25.393zm47.752 11.919c4.032-1.953 6.218-4.208 6.56-6.764.346-2.598-1.239-5.107-4.754-7.525-3.515-2.419-7.502-3.743-11.96-3.974-4.454-.274-8.698.566-12.73 2.519l-8.524 4.13 22.883 15.743 8.525-4.129zm77.992-37.531L430.68 90l-31.218 15.123-36.909-25.393 30.469-14.76 6.855 4.716-21.196 10.267 8.014 5.514 18.72-9.067 6.643 4.57-18.719 9.068 8.541 5.877 21.945-10.63zm-90.408 96.513c-14.566 7.056-16.472 19.638-4.25 28.047 12.222 8.409 34.018 9.51 48.584 2.454 14.565-7.056 16.472-19.639 4.25-28.047-12.222-8.409-34.018-9.51-48.584-2.454zm30.365 1.533c2.197 1.512 2.836 3.483 2.009 5.254-.577 1.154-.176 2.46 1.262 3.449l5.074 3.491.006.004c3.061 2.106 2.585 5.245-1.063 7.012-1.694.82-3.773 1.195-5.822 1.156-.29 1.171-1.29 2.289-2.984 3.109-3.647 1.768-9.085 1.493-12.146-.613l-.005-.004-7.384-5.08c-1.019-.701-.861-1.748.355-2.337 1.215-.588 3.029-.497 4.048.205l7.384 5.079c1.019.702 2.834.793 4.048.205 1.214-.588 1.374-1.636.355-2.337l-3.695-2.542c-1.02-.702-.861-1.749.354-2.337 1.215-.589 3.029-.498 4.049.204l3.694 2.542c1.02.701 2.835.792 4.049.204 1.214-.588 1.374-1.635.354-2.337l-10.154-6.986c-3.571-2.457-3.016-6.119 1.24-8.181l.55-.266c.912-.442 2.272-.373 3.037.153l1.385.953z" fill="#09F"/><defs><linearGradient id="paint0_linear_3153_7798" x1="57.608" y1="343.032" x2="421.614" y2="-61.539" gradientUnits="userSpaceOnUse"><stop stop-color="#09F"/><stop offset="1" stop-color="#09F" stop-opacity="0"/></linearGradient></defs></svg>