<svg width="720" height="480" fill="none" xmlns="http://www.w3.org/2000/svg" opacity=".6"><path fill-rule="evenodd" clip-rule="evenodd" d="M427.292 0l291.689 196.003v11.384l-2.57 1.73a1.026 1.026 0 01-.485.666v49.888l4.074-2.057v12.594L286.581 480 98.288 347.783l-9.272 4.179-62.6-41.43 9.608-4.45-28.189-18.871-.119-.288.94-.396-.94.396v-.002l-.007-.015-.017-.043-.067-.166a46.837 46.837 0 01-.247-.638 83.474 83.474 0 01-.877-2.422 119.412 119.412 0 01-2.649-8.802C1.93 267.455 0 257.337 0 246.425c0-10.914 1.93-20.904 3.854-28.158.962-3.63 1.926-6.581 2.65-8.627a77.45 77.45 0 01.877-2.366 47.394 47.394 0 01.315-.784l.017-.042.005-.012.002-.004.936.404-.936-.404.15-.353L427.292 0zm-416.6 206.98L427.135 2.364l288.756 194.033-429.104 202.567c-45.76-33.33-114.99-81.465-172.854-121.32a22378.693 22378.693 0 00-96.514-66.088 10944.8 10944.8 0 00-6.077-4.134l-.65-.442zm706.253-8.811l-430.38 203.17-.485-.354c-45.73-33.324-115.225-81.646-173.295-121.642a22213.324 22213.324 0 00-96.504-66.082l-6.076-4.133-1.073-.729c-.19.496-.432 1.145-.71 1.932-.708 2.002-1.654 4.9-2.601 8.468-1.894 7.141-3.784 16.946-3.784 27.626 0 10.681 1.89 20.614 3.785 27.887a117.239 117.239 0 002.602 8.647 80.57 80.57 0 001.058 2.887l28.72 19.227 7.047-3.265-33.028-21.403v-60.609l274.042 189.459 427.626-200.779v-.133l3.056-2.057v-8.117zm-3.056 12.575L286.07 411.613 14.257 223.697v55.585l33.19 21.508 28.877-13.377-22.401-14.938a1.033 1.033 0 01-.29-1.424c.31-.474.943-.605 1.412-.292l23.919 15.949.028.019 60.857 40.579.027.018 23.118 15.414c.469.313.599.951.289 1.425-.31.474-.942.604-1.411.291l-22.666-15.113-29.426 13.263 176.488 124.231 431.695-203.071v-2.822l-4.074 2.056v-2.862L285.577 460.724a1.014 1.014 0 01-1.352-.5 1.033 1.033 0 01.495-1.366l429.169-200.989v-8.016L285.577 450.441a1.014 1.014 0 01-1.352-.5 1.033 1.033 0 01.495-1.366l429.169-200.989v-6.987L285.577 441.187a1.013 1.013 0 01-1.352-.501 1.032 1.032 0 01.495-1.365l429.169-200.989v-7.502L285.577 431.418a1.014 1.014 0 01-1.352-.5 1.033 1.033 0 01.495-1.366l429.169-200.989v-7.501L285.577 421.649a1.014 1.014 0 01-1.352-.5 1.032 1.032 0 01.495-1.365l429.169-200.989v-8.051zm4.074 55.289L286.065 469.199 107.609 343.582l-7.148 3.222 186.31 130.824 431.192-208.715v-2.88zM137.19 327.997l-58.864-39.249-47.713 22.103 58.589 38.775 47.988-21.629zm279.933-293.04l72.773 51.228.021.014L651.82 194.153l-.944 1.811c-6.234-2.552-16.591-6.106-27.355-8.457-10.809-2.36-21.84-3.463-29.525-1.275-15.176 4.322-48.222 19.434-64.646 27.304l37.419 25.878-271.014 122.829L217.06 311.2l1.348-.863c2.445-1.563 6.544-5.011 10.487-9.706 3.941-4.693 7.665-10.562 9.446-16.953.771-2.769-.589-6.298-3.871-10.404-3.234-4.046-8.116-8.379-13.765-12.645-11.112-8.392-25.009-16.389-34.598-21.281l-44.12 22.146-23.906-16.288-.009-.006-55.458-36.957 90.72-44.492 85.542-41.644.003-.001 91.142-44.728 87.102-42.422zM527.23 214.562c-9.257 4.709-22.528 11.083-35.784 16.679-13.346 5.635-26.766 10.52-36.059 12.084-.785.132-1.588.274-2.409.419-5.849 1.032-12.64 2.231-20.649 1.3-9.045-1.052-19.587-4.805-32.217-14.385-9.105 4.439-23.279 7.696-37.747 8.12-14.757.432-30.038-2.078-40.627-9.505l-47.274-33.163-.412-.288-.181-.127-.01-.007-17.79 8.981-.008.004-24.381 12.068 78.454 52.982-89.072 41.628 74.864 48.558 266.694-120.872-35.392-24.476zm-301.31 92.254l80.068-37.42-76.42-51.608-41.179 20.425c9.577 4.968 22.816 12.673 33.536 20.768 5.703 4.306 10.74 8.759 14.13 13 3.342 4.182 5.308 8.442 4.246 12.253-1.886 6.771-5.799 12.899-9.852 17.726a63.863 63.863 0 01-4.529 4.856zm176.212-77.203c12.026 8.948 21.98 12.405 30.43 13.388 7.697.895 14.193-.249 20.049-1.281.825-.145 1.639-.289 2.441-.424 9.037-1.52 22.265-6.318 35.609-11.952 13.317-5.622 26.661-12.038 35.896-16.743l.009-.005.01-.005c15.593-7.529 50.879-23.786 66.867-28.339 8.202-2.336 19.661-1.125 30.509 1.244 6.96 1.52 13.747 3.536 19.39 5.468l-73.068-48.721c-5.37 3.265-13.431 7.379-22.59 10.757l-67.622 32.403-74.847-54.495-43.19 21.069 45.396 31.388c6.457 4.465 10.365 9.132 12.265 13.814 1.908 4.701 1.754 9.324.251 13.596-2.8 7.962-10.268 14.699-17.805 18.838zm5.143-99.741l73.002 53.152 54.221-25.982c-11.337 2.728-23.275 3.537-33.29-.14-11.323-4.157-24.603-12.071-36.566-20.233-11.653-7.95-22.118-16.179-28.405-21.507l-28.962 14.71zm30.944-15.717c6.297 5.292 16.38 13.18 27.563 20.81 11.926 8.137 25.04 15.936 36.122 20.005 10.897 4.001 24.431 2.443 37.049-1.243 2.71-.792 5.37-1.679 7.943-2.626l21.332-10.222-78.962-52.651-51.047 25.927zM487.351 86.9l-70.415-49.57-86.027 41.899-91.143 44.728-.003.002-85.542 41.643-87.5 42.913 52.491 34.98 22.931 15.624 43.514-21.841.004-.002 69.499-34.444.007-.004 18.328-9.253 42.263-21.079.004-.002 43.791-21.594 45.307-22.103.015-.007 82.476-41.89zm-127.437 66.11l-43.254 21.328-.004.003-40.711 20.305.004.003 46.952 32.936c10.067 7.062 24.829 9.565 39.405 9.138 14.562-.426 28.72-3.77 37.465-8.185 7.774-3.925 15.515-10.683 18.247-18.451 1.353-3.848 1.481-7.945-.217-12.128-1.705-4.202-5.291-8.583-11.531-12.897l-46.164-31.919-.016-.012-.016-.011-.105-.072-.054-.038h-.001z" fill="#09F"/><path fill-rule="evenodd" clip-rule="evenodd" d="M217.614 372.307a1.033 1.033 0 00.241 1.433l66.704 47.815c.459.329 1.094.22 1.42-.243a1.035 1.035 0 00-.241-1.434l-66.704-47.814a1.012 1.012 0 00-1.42.243zm0 9.768a1.034 1.034 0 00.241 1.434l66.704 47.815a1.013 1.013 0 001.42-.244 1.034 1.034 0 00-.241-1.433l-66.704-47.815a1.012 1.012 0 00-1.42.243zm0 9.769a1.034 1.034 0 00.241 1.434l66.704 47.814c.459.329 1.094.22 1.42-.243a1.035 1.035 0 00-.241-1.434l-66.704-47.814a1.012 1.012 0 00-1.42.243zm0 9.254a1.034 1.034 0 00.241 1.434l66.704 47.815a1.013 1.013 0 001.42-.244 1.034 1.034 0 00-.241-1.433l-66.704-47.815a1.012 1.012 0 00-1.42.243zm0 10.283a1.034 1.034 0 00.241 1.434l66.704 47.814c.459.329 1.094.22 1.42-.243a1.035 1.035 0 00-.241-1.434l-66.704-47.814a1.012 1.012 0 00-1.42.243z" fill="url(#paint0_linear_3156_7137)"/><path fill-rule="evenodd" clip-rule="evenodd" d="M94.991 205.604L408.876 52.079l54.047 37.545-313.885 153.525-54.047-37.545zm3.511.269l50.691 35.214 60.577-29.629-50.69-35.214-60.578 29.629zm62.411-30.525l50.69 35.213 60.578-29.629-50.691-35.214-60.577 29.63zm62.41-30.526l50.691 35.213 60.577-29.629-50.691-35.213-60.577 29.629zm62.41-30.526l50.691 35.214 60.577-29.63-50.69-35.213-60.578 29.629zm62.411-30.526l50.69 35.214 60.578-29.63-50.691-35.213-60.577 29.63z" fill="#09F"/><path d="M163.731 203.477l8.681-4.246 15.25 10.594c-.69 2.159-2.09 4.242-4.199 6.249-2.11 2.006-4.651 3.736-7.622 5.19-4.263 2.085-8.918 3.387-13.967 3.907-5.085.495-10.072.202-14.963-.881-4.887-1.127-9.192-2.984-12.915-5.57-3.723-2.586-6.094-5.367-7.114-8.344-1.016-3.02-.626-5.944 1.168-8.771 1.759-2.852 4.789-5.33 9.091-7.433a41.034 41.034 0 0111.46-3.635 43.276 43.276 0 0112.223-.258l-.945 6.565c-5.761-.531-10.714.218-14.859 2.246-2.62 1.281-4.446 2.767-5.477 4.458-1.031 1.691-1.201 3.448-.509 5.271.692 1.823 2.219 3.555 4.581 5.196 2.327 1.616 4.97 2.781 7.93 3.495s5.956.943 8.988.689c3.036-.298 5.845-1.079 8.425-2.341 2.738-1.339 4.664-2.917 5.78-4.734l-11.007-7.647zm73.179-12.049c-5.866 2.869-11.927 4.075-18.183 3.618-6.216-.477-12.081-2.63-17.594-6.459l-21.049-14.622 9.503-4.648 20.726 14.398c6.73 4.675 13.145 5.521 19.246 2.537 2.972-1.454 4.434-3.122 4.387-5.006-.082-1.909-1.859-4.07-5.332-6.482l-20.726-14.398 9.385-4.591 21.049 14.622c5.512 3.83 8.112 7.58 7.798 11.251-.274 3.651-3.344 6.911-9.21 9.78zm19.138-56.11l9.502-4.648 37.587 26.111-9.502 4.648-37.587-26.111zm47.514-21.647l18.653-9.124a43.158 43.158 0 0114.153-4.125c4.98-.614 9.823-.398 14.528.649 4.744 1.027 8.996 2.846 12.754 5.458 3.759 2.611 6.094 5.367 7.006 8.269.951 2.882.494 5.712-1.372 8.49-1.863 2.733-5.024 5.19-9.482 7.37l-18.653 9.124-37.587-26.111zm48.63 12.256c4.106-2.009 6.333-4.327 6.681-6.955.352-2.672-1.263-5.252-4.842-7.738-3.58-2.487-7.64-3.849-12.18-4.086-4.536-.282-8.857.582-12.963 2.59l-8.682 4.246 23.304 16.189 8.682-4.246zm79.426-38.592l6.981 4.85-31.792 15.549-37.587-26.11 31.029-15.177 6.981 4.849-21.586 10.558 8.162 5.67 19.063-9.325 6.766 4.7-19.064 9.324 8.699 6.043 22.348-10.93zm-92.07 99.241c-14.834 7.255-16.776 20.194-4.329 28.84 12.447 8.647 34.644 9.779 49.477 2.524 14.834-7.256 16.776-20.194 4.329-28.841-12.447-8.646-34.644-9.778-49.477-2.523zm30.923 1.577c2.238 1.554 2.888 3.581 2.046 5.402-.588 1.187-.18 2.529 1.285 3.547l5.168 3.59.005.004c3.117 2.165 2.633 5.393-1.082 7.21-1.725.843-3.843 1.229-5.929 1.188-.296 1.205-1.314 2.354-3.039 3.198-3.715 1.817-9.252 1.534-12.369-.631a.06.06 0 01-.006-.004l-7.519-5.223c-1.038-.722-.877-1.798.361-2.404 1.238-.605 3.085-.511 4.123.211l7.519 5.223c1.039.721 2.887.815 4.123.21 1.237-.604 1.399-1.682.361-2.403l-3.762-2.614c-1.039-.721-.877-1.798.36-2.403 1.238-.605 3.085-.511 4.123.21l3.763 2.614c1.038.721 2.887.815 4.123.21 1.236-.605 1.399-1.682.361-2.403l-10.341-7.184c-3.637-2.526-3.071-6.292 1.262-8.412l.561-.274c.928-.454 2.313-.383 3.092.158l1.411.98z" fill="#09F"/><defs><linearGradient id="paint0_linear_3156_7137" x1="58.667" y1="352.37" x2="433.328" y2="-60.041" gradientUnits="userSpaceOnUse"><stop stop-color="#09F"/><stop offset="1" stop-color="#09F" stop-opacity="0"/></linearGradient></defs></svg>