<svg width="1245" height="480" fill="none" xmlns="http://www.w3.org/2000/svg"><mask id="a" fill="#fff"><path d="M.475 197.271l66.944-32.428 56.172 38.646-66.943 32.429L.475 197.271zm393.208 270.527l66.944-32.429 56.172 38.647-66.944 32.428-56.172-38.646z"/><path d="M56.648 235.918l66.943-32.429 56.173 38.647-66.944 32.428-56.172-38.646zm393.207 270.526l66.944-32.428 56.173 38.646-66.944 32.429-56.173-38.647zM112.82 274.564l66.944-32.428 56.172 38.646-66.943 32.429-56.173-38.647zm393.208 270.527l66.944-32.429 56.172 38.647-66.944 32.428-56.172-38.646z"/><path d="M168.993 313.211l66.943-32.429 56.173 38.647-66.944 32.429-56.172-38.647zM562.2 583.737l66.944-32.428 56.173 38.647-66.944 32.428-56.173-38.647z"/><path d="M225.165 351.858l66.944-32.429 56.173 38.647-66.944 32.428-56.173-38.646zm393.208 270.526l66.944-32.428 56.172 38.646-66.944 32.429-56.172-38.647zm-337.035-231.88l66.944-32.428 56.172 38.646-66.944 32.429-56.172-38.647z"/><path d="M674.545 661.031l66.944-32.429 56.173 38.647-66.944 32.428-56.173-38.646zM337.51 429.151l66.944-32.429 56.173 38.647-66.944 32.429-56.173-38.647z"/><path d="M730.718 699.677l66.944-32.428 56.172 38.647-66.944 32.428-56.172-38.647zM134.363 132.414l66.944-32.428 56.172 38.646-66.944 32.429-56.172-38.647zM527.57 402.941l66.944-32.429 56.173 38.647-66.944 32.428-56.173-38.646z"/><path d="M190.535 171.061l66.944-32.429 56.173 38.647-66.944 32.428-56.173-38.646zm393.208 270.526l66.944-32.428 56.172 38.647-66.944 32.428-56.172-38.647z"/><path d="M246.708 209.707l66.944-32.428 56.172 38.647-66.944 32.428-56.172-38.647zm393.207 270.527l66.944-32.428 56.173 38.646-66.944 32.429-56.173-38.647zM302.88 248.354l66.944-32.428 56.173 38.646-66.944 32.429-56.173-38.647z"/><path d="M696.088 518.881l66.944-32.429 56.172 38.647-66.944 32.428-56.172-38.646zm-337.035-231.88l66.944-32.429 56.172 38.647-66.944 32.428-56.172-38.646z"/><path d="M752.26 557.527l66.944-32.428 56.173 38.647-66.944 32.428-56.173-38.647zm-337.035-231.88l66.944-32.428 56.173 38.647-66.944 32.428-56.173-38.647z"/><path d="M808.433 596.174l66.944-32.428 56.172 38.646-66.944 32.429-56.172-38.647zm-337.035-231.88l66.944-32.428 56.172 38.646-66.944 32.429-56.172-38.647zm393.207 270.527l66.944-32.429 56.173 38.647-66.944 32.428-56.173-38.646zM268.25 67.557l66.944-32.428 56.173 38.647-66.944 32.428-56.173-38.647zm393.208 270.527l66.944-32.428 56.172 38.646-66.943 32.429-56.173-38.647z"/><path d="M324.423 106.204l66.944-32.428 56.172 38.646-66.944 32.429-56.172-38.647zm393.208 270.527l66.943-32.429 56.173 38.647-66.944 32.428-56.172-38.646zm-337.036-231.88l66.944-32.429 56.173 38.647-66.944 32.428-56.173-38.646z"/><path d="M773.803 415.377l66.944-32.428 56.172 38.646-66.943 32.429-56.173-38.647zm-337.035-231.88l66.944-32.428 56.172 38.647-66.944 32.428-56.172-38.647z"/><path d="M829.976 454.024l66.943-32.429 56.173 38.647-66.944 32.429-56.172-38.647zM492.94 222.144l66.944-32.428 56.173 38.646-66.944 32.429-56.173-38.647z"/><path d="M886.148 492.671l66.944-32.429 56.168 38.647-66.939 32.428-56.173-38.646zm-337.035-231.88l66.944-32.429 56.172 38.647-66.944 32.428-56.172-38.646z"/><path d="M942.321 531.317l66.939-32.428 56.18 38.646-66.947 32.429-56.172-38.647zm-337.036-231.88l66.944-32.428 56.173 38.647-66.944 32.428-56.173-38.647zm393.208 270.527l66.947-32.429 56.17 38.647-66.94 32.429-56.177-38.647zM402.138 2.7l66.944-32.428L525.254 8.92 458.31 41.347 402.138 2.701zm393.208 270.527l66.943-32.428 56.173 38.646-66.944 32.429-56.172-38.647z"/><path d="M458.31 41.347L525.254 8.92l56.173 38.646-66.944 32.429-56.173-38.647zm393.208 270.527l66.944-32.429 56.172 38.647-66.943 32.428-56.173-38.646z"/><path d="M514.483 79.994l66.944-32.429 56.172 38.647-66.943 32.428-56.173-38.646zM907.691 350.52l66.943-32.428 56.176 38.647-66.947 32.428-56.172-38.647zM570.656 118.64l66.943-32.428 56.173 38.647-66.944 32.428-56.172-38.647z"/><path d="M963.863 389.167l66.947-32.428 56.17 38.646-66.94 32.429-56.177-38.647zm-337.035-231.88l66.944-32.428 56.172 38.646-66.943 32.429-56.173-38.647zm393.212 270.527l66.94-32.429 56.17 38.647-66.94 32.428-56.17-38.646z"/><path d="M683.001 195.934l66.943-32.429 56.173 38.647-66.944 32.428-56.172-38.646zM1076.21 466.46l66.94-32.428 56.17 38.647-66.94 32.428-56.17-38.647zM739.173 234.58l66.944-32.428 56.172 38.647-66.943 32.428-56.173-38.647zm393.207 270.527l66.94-32.428 56.18 38.646-66.95 32.429-56.17-38.647zM536.026-62.156l66.943-32.429 56.173 38.647-66.944 32.428-56.172-38.646zM929.233 208.37l66.944-32.428 56.173 38.647-66.944 32.428-56.173-38.647zM592.198-23.51l66.944-32.428 56.172 38.647-66.943 32.428-56.173-38.647z"/><path d="M985.406 247.017l66.944-32.428 56.17 38.646-66.94 32.429-56.174-38.647zM648.371 15.137l66.943-32.428 56.173 38.646-66.944 32.429-56.172-38.647z"/><path d="M1041.58 285.664l66.94-32.429 56.17 38.647-66.94 32.428-56.17-38.646zM704.543 53.784l66.944-32.429 56.172 38.647-66.943 32.428-56.173-38.646z"/><path d="M1097.75 324.31l66.94-32.428 56.18 38.647-66.95 32.428-56.17-38.647zM760.716 92.43l66.943-32.428 56.173 38.647-66.944 32.428-56.172-38.647z"/><path d="M1153.92 362.957l66.95-32.428 56.17 38.646-66.94 32.429-56.18-38.647zm-337.032-231.88l66.944-32.428 56.173 38.646-66.944 32.429-56.173-38.647z"/><path d="M1210.1 401.604l66.94-32.429 56.17 38.647-66.94 32.428-56.17-38.646zm-337.039-231.88l66.944-32.429 56.172 38.647-66.944 32.428-56.172-38.646zM1266.27 440.25l66.94-32.428 56.17 38.647-66.94 32.428-56.17-38.647zM669.913-127.013l66.944-32.429 56.173 38.647-66.944 32.429-56.173-38.647zm393.207 270.527l66.94-32.429 56.18 38.647-66.95 32.428-56.17-38.646zM726.086-88.366l66.944-32.429 56.172 38.647-66.944 32.428-56.172-38.646z"/><path d="M1119.29 182.16l66.95-32.428 56.17 38.646-66.94 32.429-56.18-38.647zM782.258-49.72l66.944-32.428 56.173 38.646-66.944 32.429-56.173-38.647z"/><path d="M1175.47 220.807l66.94-32.429 56.17 38.647-66.94 32.428-56.17-38.646zM838.431-11.073l66.944-32.428 56.172 38.646-66.944 32.428-56.172-38.646z"/><path d="M1231.64 259.453l66.94-32.428 56.17 38.647-66.94 32.428-56.17-38.647zM894.603 27.573l66.944-32.428 56.173 38.647-66.944 32.428-56.173-38.647z"/><path d="M1287.81 298.1l66.94-32.428 56.18 38.646-66.95 32.429-56.17-38.647zM950.776 66.22l66.944-32.428 56.17 38.647-66.94 32.428-56.174-38.647z"/><path d="M1343.98 336.747l66.95-32.429 56.17 38.647-66.94 32.428-56.18-38.646zm-337.03-231.88l66.94-32.428 56.17 38.646-66.94 32.429-56.17-38.647z"/><path d="M1400.16 375.393l66.94-32.428 56.17 38.647-66.94 32.428-56.17-38.647zM803.801-191.87l66.944-32.428 56.172 38.646-66.944 32.429-56.172-38.647zM1197.01 78.657l66.94-32.429 56.17 38.647-66.94 32.428-56.17-38.646z"/><path d="M859.973-153.223l66.944-32.429 56.173 38.647-66.944 32.428-56.173-38.646zm393.207 270.526l66.94-32.428 56.18 38.647-66.95 32.428-56.17-38.647zm-337.034-231.88l66.944-32.428 56.17 38.647-66.942 32.428-56.172-38.647z"/><path d="M1309.35 155.95l66.95-32.428 56.17 38.646-66.94 32.429-56.18-38.647zM972.318-75.93l66.942-32.428 56.17 38.646-66.94 32.429-56.172-38.647z"/><path d="M1365.53 194.597l66.94-32.429 56.17 38.647-66.94 32.428-56.17-38.646zm-337.04-231.88l66.94-32.429 56.18 38.647-66.95 32.428-56.17-38.646z"/><path d="M1421.7 233.243l66.94-32.428 56.17 38.647-66.94 32.428-56.17-38.647zM1084.66 1.363l66.95-32.428 56.17 38.647-66.94 32.428-56.18-38.647z"/><path d="M1477.87 271.89l66.94-32.428 56.18 38.646-66.95 32.429-56.17-38.647zM1140.84 40.01l66.94-32.428 56.17 38.646-66.94 32.429-56.17-38.647z"/><path d="M1534.04 310.537l66.95-32.429 56.17 38.647-66.94 32.428-56.18-38.646zM67.419 164.843l66.944-32.429 56.172 38.647-66.944 32.428-56.172-38.646zm393.208 270.526l66.943-32.428 56.173 38.646-66.944 32.429-56.172-38.647zm-337.036-231.88l66.944-32.428 56.173 38.646-66.944 32.429-56.173-38.647z"/><path d="M516.799 474.016l66.944-32.429 56.172 38.647-66.943 32.428-56.173-38.646zm-337.035-231.88l66.944-32.429 56.172 38.647-66.944 32.428-56.172-38.646zm393.208 270.526l66.943-32.428 56.173 38.647-66.944 32.428-56.172-38.647z"/><path d="M235.936 280.782l66.944-32.428 56.173 38.647-66.944 32.428-56.173-38.647zm393.208 270.527l66.944-32.428 56.172 38.646-66.943 32.429-56.173-38.647z"/><path d="M292.109 319.429l66.944-32.428 56.172 38.646-66.943 32.429-56.173-38.647zm393.208 270.527l66.943-32.429 56.173 38.647-66.944 32.428-56.172-38.646z"/><path d="M348.282 358.076l66.943-32.429 56.173 38.647-66.944 32.428-56.172-38.646zm393.207 270.526l66.944-32.428 56.172 38.647-66.943 32.428-56.173-38.647z"/><path d="M404.454 396.722l66.944-32.428 56.172 38.647-66.943 32.428-56.173-38.647zm393.208 270.527l66.943-32.428 56.173 38.646-66.944 32.429-56.172-38.647zM201.307 99.986l66.943-32.429 56.173 38.647-66.944 32.428-56.172-38.646zm393.207 270.526l66.944-32.428 56.173 38.647-66.944 32.428-56.173-38.647z"/><path d="M257.479 138.632l66.944-32.428 56.172 38.647-66.943 32.428-56.173-38.647zm393.208 270.527l66.944-32.428 56.172 38.646-66.944 32.429-56.172-38.647z"/><path d="M313.652 177.279l66.943-32.428 56.173 38.646-66.944 32.429-56.172-38.647zm393.207 270.527l66.944-32.429 56.173 38.647-66.944 32.428-56.173-38.646z"/><path d="M369.824 215.926l66.944-32.429 56.172 38.647-66.943 32.428-56.173-38.646zm393.208 270.526l66.944-32.428 56.172 38.647-66.944 32.428-56.172-38.647z"/><path d="M425.997 254.572l66.943-32.428 56.173 38.647-66.944 32.428-56.172-38.647zm393.207 270.527l66.944-32.428 56.173 38.646-66.944 32.429-56.173-38.647z"/><path d="M482.169 293.219l66.944-32.428 56.172 38.646-66.943 32.429-56.173-38.647zm393.208 270.527l66.944-32.429 56.172 38.647-66.944 32.428-56.172-38.646z"/><path d="M538.342 331.866l66.943-32.429 56.173 38.647-66.944 32.428-56.172-38.646zm393.207 270.526l66.944-32.428 56.177 38.647-66.948 32.428-56.173-38.647zM335.194 35.129L402.138 2.7l56.172 38.646-66.943 32.429-56.173-38.647zm393.208 270.527l66.944-32.429 56.172 38.647-66.944 32.428-56.172-38.646zM391.367 73.776l66.943-32.429 56.173 38.647-66.944 32.428-56.172-38.646z"/><path d="M784.574 344.302l66.944-32.428 56.173 38.646-66.944 32.429-56.173-38.647zm-337.035-231.88l66.944-32.428 56.173 38.646-66.944 32.429-56.173-38.647z"/><path d="M840.747 382.949l66.944-32.429 56.172 38.647-66.944 32.428-56.172-38.646zm-337.035-231.88l66.944-32.429 56.172 38.647-66.944 32.429-56.172-38.647zm393.207 270.526l66.944-32.428 56.177 38.647-66.948 32.428-56.173-38.647zM559.884 189.716l66.944-32.429 56.173 38.647-66.944 32.428-56.173-38.646zm393.208 270.526l66.948-32.428 56.17 38.646-66.95 32.429-56.168-38.647zm-337.035-231.88l66.944-32.428 56.172 38.646-66.944 32.429-56.172-38.647z"/><path d="M1009.26 498.889l66.95-32.429 56.17 38.647-66.94 32.428-56.18-38.646zm-337.031-231.88l66.944-32.429 56.173 38.647-66.944 32.429-56.173-38.647z"/><path d="M1065.44 537.535l66.94-32.428 56.17 38.647-66.94 32.428-56.17-38.647zM469.082-29.728l66.944-32.428 56.172 38.646-66.944 32.43-56.172-38.647zm393.207 270.527l66.944-32.429 56.173 38.647-66.944 32.428-56.173-38.646z"/><path d="M525.254 8.919l66.944-32.429 56.173 38.647-66.944 32.428L525.254 8.92zm393.208 270.526l66.944-32.428 56.174 38.647-66.946 32.428-56.172-38.647z"/><path d="M581.427 47.565l66.944-32.428 56.172 38.647-66.944 32.428-56.172-38.647zm393.207 270.527l66.946-32.428 56.17 38.646-66.94 32.429-56.176-38.647zM637.599 86.212l66.944-32.428 56.173 38.646-66.944 32.429-56.173-38.647z"/><path d="M1030.81 356.739l66.94-32.429 56.17 38.647-66.94 32.428-56.17-38.646zm-337.038-231.88l66.944-32.429 56.172 38.647-66.944 32.428-56.172-38.646zm393.208 270.526l66.94-32.428 56.18 38.647-66.95 32.428-56.17-38.647z"/><path d="M749.944 163.505l66.944-32.428 56.173 38.647-66.944 32.428-56.173-38.647zm393.206 270.527l66.95-32.428 56.17 38.646-66.95 32.429-56.17-38.647z"/><path d="M806.117 202.152l66.944-32.428 56.172 38.646-66.944 32.429-56.172-38.647zm393.203 270.527l66.95-32.429 56.17 38.647-66.94 32.428-56.18-38.646zM602.969-94.585l66.944-32.428 56.173 38.647-66.944 32.428-56.173-38.647zm393.208 270.527l66.943-32.428 56.17 38.646-66.94 32.429-56.173-38.647z"/><path d="M659.142-55.938l66.944-32.428 56.172 38.646-66.944 32.429-56.172-38.647zm393.208 270.527l66.94-32.429 56.18 38.647-66.95 32.428-56.17-38.646z"/><path d="M715.314-17.291l66.944-32.429 56.173 38.647-66.944 32.428-56.173-38.646zm393.206 270.526l66.95-32.428 56.17 38.646-66.95 32.429-56.17-38.647z"/><path d="M771.487 21.355l66.944-32.428 56.172 38.646-66.944 32.429-56.172-38.647zm393.203 270.527l66.95-32.429 56.17 38.647-66.94 32.429-56.18-38.647z"/><path d="M827.659 60.002l66.944-32.428 56.173 38.646-66.944 32.429-56.173-38.647zm393.211 270.527l66.94-32.429 56.17 38.647-66.94 32.428-56.17-38.646z"/><path d="M883.832 98.649l66.944-32.429 56.174 38.647-66.945 32.428-56.173-38.646zm393.208 270.526l66.94-32.428 56.18 38.646-66.95 32.429-56.17-38.647zm-337.035-231.88l66.945-32.428 56.17 38.647-66.943 32.428-56.172-38.647z"/><path d="M1333.21 407.822l66.95-32.429 56.17 38.647-66.95 32.429-56.17-38.647zM736.857-159.442l66.944-32.428 56.172 38.647-66.943 32.428-56.173-38.647zm393.203 270.527l66.95-32.428 56.17 38.646-66.94 32.429-56.18-38.647z"/><path d="M793.03-120.795l66.943-32.428 56.173 38.646-66.944 32.429-56.172-38.647zm393.21 270.527l66.94-32.429 56.17 38.647-66.94 32.428-56.17-38.646zM849.202-82.148l66.944-32.429 56.172 38.647-66.943 32.43-56.173-38.647z"/><path d="M1242.41 188.378l66.94-32.428 56.18 38.647-66.95 32.428-56.17-38.647zM905.375-43.502l66.943-32.428 56.172 38.647-66.943 32.428-56.172-38.647z"/><path d="M1298.58 227.025l66.95-32.428 56.17 38.646-66.95 32.429-56.17-38.647zM961.547-4.855l66.943-32.428 56.17 38.646-66.94 32.429-56.173-38.647zm393.203 270.527l66.95-32.429 56.17 38.647-66.94 32.428-56.18-38.646z"/><path d="M1017.72 33.792l66.94-32.429 56.18 38.647-66.95 32.429-56.17-38.647zm393.21 270.526l66.94-32.428 56.17 38.647-66.94 32.428-56.17-38.647z"/><path d="M1073.89 72.439l66.95-32.429 56.17 38.647-66.95 32.428-56.17-38.646zm393.21 270.526l66.94-32.428 56.18 38.646-66.95 32.429-56.17-38.647zM870.745-224.298l66.943-32.429 56.173 38.647-66.944 32.428-56.172-38.646zM1263.95 46.228L1330.9 13.8l56.17 38.647-66.95 32.428-56.17-38.647z"/><path d="M926.917-185.652l66.944-32.428 56.169 38.647-66.94 32.428-56.173-38.647zM1320.12 84.875l66.95-32.428 56.17 38.646-66.94 32.429-56.18-38.647zm-337.03-231.88l66.94-32.428 56.18 38.646-66.95 32.429-56.17-38.647z"/><path d="M1376.3 123.522l66.94-32.429 56.17 38.647-66.94 32.428-56.17-38.646zm-337.04-231.88l66.95-32.429 56.17 38.647-66.95 32.428-56.17-38.646z"/><path d="M1432.47 162.168l66.94-32.428 56.18 38.647-66.95 32.428-56.17-38.647zm-337.04-231.88l66.95-32.428 56.17 38.647-66.94 32.428-56.18-38.647z"/><path d="M1488.64 200.815l66.95-32.428 56.17 38.646-66.95 32.429-56.17-38.647zm-337.03-231.88l66.94-32.428 56.17 38.646-66.94 32.429-56.17-38.647z"/><path d="M1544.81 239.462l66.95-32.429 56.17 38.647-66.94 32.428-56.18-38.646zM1207.78 7.582l66.94-32.429L1330.9 13.8l-66.95 32.428-56.17-38.646zm393.21 270.526l66.94-32.428 56.17 38.647-66.94 32.428-56.17-38.647z"/></mask><path d="M66.969 165.06l56.172 38.647.9-.436-56.172-38.646-.9.435zm56.211 38.146l-66.944 32.428.824.567 66.943-32.428-.823-.567zm270.915 264.875l66.943-32.428-.823-.567-66.944 32.428.824.567zm66.082-32.494l56.172 38.647.9-.436-56.172-38.647-.9.436zm56.21 38.145l-66.944 32.429.824.567 66.944-32.429-.824-.567zM123.141 203.707l56.173 38.647.9-.436-56.173-38.647-.9.436zm56.211 38.145l-66.944 32.429.824.567 66.944-32.429-.824-.567zm336.997 232.382l56.173 38.646.9-.436-56.173-38.646-.9.436zm56.211 38.145l-66.944 32.428.824.567 66.944-32.428-.824-.567zM179.314 242.354L235.486 281l.9-.435-56.172-38.647-.9.436zm56.211 38.145l-66.944 32.428.824.567 66.943-32.428-.823-.567zM572.522 512.88l56.172 38.647.9-.436-56.172-38.647-.9.436zm56.21 38.146l-66.944 32.428.824.567 66.944-32.429-.824-.566zM235.486 281l56.173 38.647.9-.436-56.173-38.646-.9.435zm56.211 38.146l-66.944 32.428.824.567 66.944-32.428-.824-.567zm336.997 232.381l56.173 38.647.9-.436-56.173-38.647-.9.436zm56.211 38.145l-66.944 32.429.824.567 66.944-32.429-.824-.567zM291.659 319.647l56.173 38.647.899-.436-56.172-38.647-.9.436zm56.211 38.145l-66.944 32.429.824.567 66.943-32.429-.823-.567zm336.997 232.382l56.172 38.646.9-.436-56.172-38.646-.9.436zm56.21 38.145l-66.944 32.428.824.567 66.944-32.428-.824-.567zM347.832 358.294l56.172 38.646.9-.436-56.173-38.646-.899.436zm56.21 38.145l-66.944 32.428.824.567 66.944-32.428-.824-.567zM741.039 628.82l56.173 38.647.9-.436-56.173-38.647-.9.436zm56.211 38.146l-66.944 32.428.824.567 66.944-32.429-.824-.566zM404.004 396.94l56.173 38.647.9-.436-56.173-38.647-.9.436zm393.208 270.527l56.172 38.647.9-.436-56.172-38.647-.9.436zM200.857 100.204l56.172 38.646.9-.436-56.173-38.646-.899.436zm56.21 38.145l-66.944 32.428.824.567 66.944-32.428-.824-.567zm-66.082 32.494l-56.172-38.647-.9.436 56.172 38.647.9-.436zm336.997 232.381l66.944-32.428-.824-.567-66.944 32.428.824.567zm66.082-32.494l56.173 38.647.9-.436-56.173-38.647-.9.436zm56.211 38.146l-66.944 32.428.824.567 66.944-32.429-.824-.566zm-66.082 32.493l-56.173-38.646-.9.436 56.173 38.646.9-.436zM257.029 138.85l56.173 38.647.9-.436-56.173-38.647-.9.436zm56.211 38.146l-66.944 32.428.824.567 66.943-32.429-.823-.566zm-66.082 32.493l-56.173-38.646-.9.436 56.173 38.646.9-.436zm403.079 199.888l56.172 38.647.9-.436-56.172-38.647-.9.436zm56.21 38.145l-66.943 32.429.823.566 66.944-32.428-.824-.567zm-66.082 32.494l-56.172-38.647-.9.436 56.172 38.647.9-.436zM313.202 177.497l56.172 38.647.9-.436-56.172-38.647-.9.436zm56.21 38.145l-66.944 32.429.824.566 66.944-32.428-.824-.567zm-66.082 32.494l-56.172-38.647-.9.436 56.172 38.647.9-.436zm403.079 199.888l56.173 38.646.9-.436-56.173-38.646-.9.436zm56.211 38.145l-66.944 32.428.824.567 66.944-32.428-.824-.567zm-66.082 32.494l-56.173-38.647-.9.436 56.173 38.647.9-.436zM369.374 216.144l56.173 38.646.9-.436-56.173-38.646-.9.436zm56.211 38.145l-66.944 32.428.824.567 66.944-32.428-.824-.567zm-66.082 32.494l-56.173-38.647-.9.436 56.173 38.647.9-.436zM762.582 486.67l56.172 38.647.9-.436-56.172-38.647-.9.436zm56.21 38.146l-66.943 32.428.823.567 66.944-32.429-.824-.566zm-66.082 32.493l-56.172-38.646-.9.436 56.172 38.646.9-.436zM425.547 254.79l56.172 38.647.9-.436-56.172-38.647-.9.436zm56.21 38.146l-66.944 32.428.824.567 66.944-32.429-.824-.566zm-66.082 32.493l-56.172-38.646-.9.436 56.172 38.646.9-.436zm403.079 199.888l56.173 38.647.9-.436-56.173-38.647-.9.436zm56.211 38.145l-66.944 32.429.824.566 66.944-32.428-.824-.567zm-66.082 32.494l-56.173-38.647-.9.436 56.173 38.647.9-.436zM481.719 293.437l56.173 38.647.9-.436-56.173-38.647-.9.436zm56.211 38.145l-66.944 32.429.824.566 66.944-32.428-.824-.567zm-66.082 32.494l-56.173-38.647-.9.436 56.173 38.647.9-.436zm403.079 199.888l56.172 38.646.9-.436-56.172-38.646-.9.436zm56.21 38.145l-66.943 32.428.823.567 66.944-32.428-.824-.567zm-66.082 32.494l-56.172-38.647-.9.436 56.173 38.647.899-.436zM537.892 332.084l56.172 38.646.9-.436-56.172-38.646-.9.436zm-9.872 70.639l-56.172-38.647-.9.436 56.172 38.647.9-.436zM931.099 602.61l56.173 38.647.9-.436-56.173-38.647-.9.436zm-9.871 70.639l-56.173-38.646-.899.436 56.172 38.646.9-.436zM334.744 35.347l56.173 38.646.9-.435-56.173-38.647-.9.436zm56.211 38.145l-66.944 32.429.824.566 66.944-32.428-.824-.567zm-66.082 32.494L268.7 67.339l-.9.436 56.173 38.647.9-.436zM661.87 338.367l66.944-32.428-.824-.567-66.944 32.429.824.566zm66.082-32.494l56.172 38.647.9-.436-56.172-38.646-.9.435zm56.21 38.146l-66.943 32.428.823.567 66.944-32.428-.824-.567zm-66.082 32.494l-56.172-38.647-.9.436 56.173 38.647.899-.436zM390.917 73.993l56.172 38.647.9-.436-56.172-38.646-.9.435zm56.21 38.146l-66.944 32.428.824.567 66.944-32.428-.824-.567zm-66.082 32.494l-56.172-38.647-.9.436 56.172 38.647.9-.436zM784.124 344.52l56.173 38.647.9-.436-56.173-38.647-.9.436zm56.211 38.145l-66.944 32.429.824.567 66.944-32.429-.824-.567zm-66.082 32.494l-56.173-38.646-.899.436 56.172 38.646.9-.436zM447.089 112.64l56.173 38.647.9-.436-56.173-38.647-.9.436zm56.211 38.145l-66.944 32.429.824.567 66.944-32.429-.824-.567zm-66.082 32.494l-56.173-38.646-.9.436 56.173 38.646.9-.436zm403.079 199.888l56.172 38.646.9-.435-56.172-38.647-.9.436zm56.21 38.145l-66.943 32.428.823.567 66.944-32.428-.824-.567zm-66.081 32.494l-56.173-38.647-.9.436 56.173 38.647.9-.436zM503.262 151.287l56.172 38.647.9-.436-56.172-38.647-.9.436zm56.21 38.145l-66.944 32.429.824.566 66.944-32.428-.824-.567zm-66.082 32.494l-56.172-38.647-.9.436 56.172 38.647.9-.436zm403.079 199.887l56.173 38.647.9-.436-56.173-38.646-.9.435zm56.211 38.146l-66.944 32.428.824.567 66.944-32.428-.824-.567zm-66.082 32.494l-56.172-38.647-.9.436 56.172 38.647.9-.436zM559.434 189.934l56.173 38.646.9-.436-56.173-38.646-.9.436zm56.211 38.145l-66.944 32.428.824.567 66.944-32.428-.824-.567zm-66.082 32.494l-56.173-38.647-.9.436 56.173 38.647.9-.436zM952.642 460.46l56.168 38.647.9-.436-56.168-38.647-.9.436zm56.208 38.145l-66.941 32.429.824.567 66.947-32.429-.83-.567zm-66.079 32.494l-56.173-38.646-.9.436 56.173 38.646.9-.436zM615.607 228.58l56.172 38.647.9-.436-56.172-38.647-.9.436zm56.21 38.145l-66.943 32.429.823.567 66.944-32.429-.824-.567zm-66.082 32.494l-56.172-38.646-.9.436 56.172 38.646.9-.436zm403.075 199.888l56.18 38.646.9-.436-56.18-38.646-.9.436zm56.21 38.145l-66.939 32.428.824.567 66.945-32.428-.83-.567zm-66.077 32.494l-56.172-38.647-.9.436 56.172 38.647.9-.436zM671.779 267.227l56.173 38.646.9-.435-56.173-38.647-.9.436zm-9.871 70.639l-56.173-38.647-.9.436 56.173 38.647.9-.436zm403.082 199.887l56.17 38.647.9-.436-56.17-38.647-.9.436zm-9.87 70.64l-56.177-38.647-.9.436 56.177 38.647.9-.436zM468.632-29.51l56.172 38.647.9-.436-56.172-38.647-.9.436zm56.21 38.145l-66.943 32.429.823.567 66.944-32.429-.824-.567zM458.76 41.13L402.588 2.483l-.9.435 56.172 38.647.9-.436zm336.998 232.382l66.943-32.429-.824-.567-66.943 32.429.824.567zm66.081-32.494l56.173 38.646.9-.436-56.173-38.646-.9.436zm56.211 38.145l-66.944 32.428.824.567 66.944-32.428-.824-.567zm-66.082 32.494l-56.172-38.647-.9.436 56.172 38.647.9-.436zM524.804 9.136l56.173 38.647.9-.436-56.173-38.646-.9.436zm56.211 38.146L514.071 79.71l.824.567 66.944-32.428-.824-.567zm-66.082 32.494L458.76 41.129l-.9.436 56.173 38.647.9-.436zm403.079 199.887l56.172 38.647.9-.436-56.172-38.647-.9.436zm56.211 38.146l-66.944 32.428.824.567 66.943-32.429-.823-.566zm-66.082 32.493l-56.173-38.646-.9.436 56.173 38.646.9-.436zM580.977 47.783l56.172 38.647.9-.436-56.172-38.647-.9.436zm56.21 38.146l-66.943 32.428.823.567 66.944-32.428-.824-.567zm-66.082 32.494l-56.172-38.647-.9.436 56.173 38.646.899-.435zM974.184 318.31l56.176 38.647.9-.436-56.176-38.647-.9.436zm56.216 38.145l-66.949 32.429.824.566 66.945-32.428-.82-.567zm-66.087 32.494l-56.172-38.647-.9.436 56.172 38.647.9-.436zM637.149 86.43l56.173 38.647.9-.436-56.173-38.647-.9.436zm56.211 38.145l-66.944 32.429.824.567 66.944-32.429-.824-.567zm-66.082 32.494l-56.173-38.646-.899.435 56.172 38.647.9-.436zm403.082 199.888l56.17 38.646.9-.436-56.17-38.646-.9.436zm56.21 38.145l-66.95 32.428.83.567 66.94-32.428-.82-.567zm-66.08 32.494l-56.177-38.647-.9.436 56.177 38.647.9-.436zM693.322 125.077l56.172 38.646.9-.436-56.172-38.646-.9.436zm56.21 38.145l-66.943 32.428.823.567 66.944-32.428-.824-.567zm-66.081 32.494l-56.173-38.647-.9.436 56.173 38.647.9-.436zm403.079 199.887l56.17 38.647.9-.436-56.17-38.647-.9.436zm56.21 38.146l-66.94 32.428.82.567 66.94-32.429-.82-.566zm-66.08 32.493l-56.17-38.646-.9.436 56.17 38.646.9-.436zM749.494 163.723l56.173 38.647.9-.436-56.173-38.647-.9.436zm56.211 38.146l-66.944 32.428.824.567 66.944-32.429-.824-.566zm-66.082 32.493l-56.172-38.646-.9.436 56.172 38.646.9-.436zM1142.7 434.25l56.17 38.647.9-.436-56.17-38.647-.9.436zm56.21 38.145l-66.94 32.429.82.566 66.95-32.428-.83-.567zm-66.08 32.494l-56.17-38.647-.9.436 56.17 38.647.9-.436zM805.667 202.37l56.172 38.647.9-.436-56.172-38.647-.9.436zm-9.871 70.639l-56.173-38.647-.9.436 56.173 38.647.9-.436zm403.074 199.888l56.18 38.646.9-.436-56.18-38.646-.9.436zm-9.87 70.639l-56.17-38.647-.9.436 56.17 38.647.9-.436zM602.519-94.367l56.173 38.647.9-.436-56.173-38.647-.9.436zM658.73-56.22l-66.944 32.428.824.567 66.944-32.429-.824-.566zm-66.082 32.493l-56.172-38.646-.9.436 56.172 38.646.9-.436zm336.997 232.382l66.944-32.429-.824-.566-66.944 32.428.824.567zm66.082-32.494l56.173 38.647.9-.436-56.173-38.647-.9.436zm56.213 38.145l-66.946 32.429.824.566 66.942-32.428-.82-.567zM985.856 246.8l-56.173-38.647-.9.436 56.173 38.647.9-.436zM658.692-55.721l56.172 38.648.9-.436-56.172-38.647-.9.436zm56.21 38.146l-66.943 32.429.824.566 66.943-32.428-.824-.567zM648.821 14.92l-56.173-38.647-.9.436 56.173 38.647.9-.436zM1051.9 214.807l56.17 38.646.9-.436-56.17-38.646-.9.436zm56.21 38.145l-66.94 32.428.82.567 66.94-32.428-.82-.567zm-66.08 32.494l-56.174-38.647-.9.436 56.174 38.647.9-.436zM714.864-17.074l56.173 38.647.9-.436-56.173-38.646-.9.436zm56.211 38.146L704.131 53.5l.824.567 66.944-32.428-.824-.567zm-66.082 32.494l-56.172-38.647-.9.436 56.172 38.647.9-.436zm403.077 199.887l56.17 38.647.9-.436-56.17-38.647-.9.436zm56.21 38.145l-66.94 32.429.82.567 66.95-32.429-.83-.567zm-66.08 32.494l-56.17-38.646-.9.436 56.17 38.646.9-.436zM771.037 21.573l56.172 38.647.9-.436-56.172-38.647-.9.436zm56.211 38.145l-66.944 32.429.824.567 66.943-32.429-.823-.566zm-66.082 32.494l-56.173-38.646-.9.436 56.173 38.646.9-.436zM1164.24 292.1l56.18 38.647.9-.436-56.18-38.647-.9.436zm56.22 38.145l-66.95 32.429.83.566 66.94-32.428-.82-.567zm-66.09 32.494l-56.17-38.647-.9.436 56.17 38.647.9-.436zM827.209 60.219l56.173 38.648.9-.436-56.173-38.647-.9.436zm56.211 38.146l-66.944 32.429.824.566 66.944-32.428-.824-.567zm-66.082 32.494l-56.172-38.647-.9.436 56.172 38.647.9-.436zm403.082 199.888l56.17 38.646.9-.436-56.17-38.646-.9.436zm56.21 38.145l-66.95 32.428.83.567 66.94-32.428-.82-.567zm-66.08 32.494l-56.18-38.647-.9.436 56.18 38.647.9-.436zM883.382 98.866l56.173 38.647.9-.436-56.173-38.646-.9.436zm56.211 38.146l-66.944 32.428.824.567 66.943-32.428-.823-.567zm-66.082 32.494l-56.173-38.647-.9.436 56.173 38.647.9-.436zm403.079 199.887l56.17 38.647.9-.436-56.17-38.647-.9.436zm56.21 38.145l-66.94 32.429.82.567 66.94-32.429-.82-.567zm-66.08 32.494l-56.17-38.646-.9.436 56.17 38.646.9-.436zM939.555 137.513l56.172 38.647.9-.436-56.172-38.647-.9.436zm-9.872 70.639l-56.172-38.646-.9.436 56.172 38.646.9-.436zM1332.76 408.04l56.17 38.647.9-.436-56.17-38.647-.9.436zm-9.87 70.639l-56.17-38.647-.9.436 56.17 38.647.9-.436zM736.407-159.224l56.173 38.647.9-.436-56.173-38.646-.9.435zm56.211 38.146L725.674-88.65l.824.567 66.943-32.428-.823-.567zm-66.082 32.494l-56.173-38.647-.9.436 56.173 38.647.9-.436zm336.994 232.381l66.95-32.428-.83-.567-66.94 32.428.82.567zm66.08-32.494l56.18 38.647.9-.436-56.18-38.647-.9.436zm56.22 38.145l-66.95 32.429.83.567 66.94-32.429-.82-.567zm-66.09 32.494l-56.17-38.646-.9.435 56.17 38.647.9-.436zM792.58-120.577l56.172 38.647.9-.436-56.172-38.647-.9.436zm56.21 38.145l-66.944 32.429.824.567 66.944-32.429-.824-.567zm-66.082 32.494l-56.172-38.646-.9.436 56.172 38.646.9-.436zM1185.79 149.95l56.17 38.646.9-.436-56.17-38.646-.9.436zm56.21 38.145l-66.95 32.428.83.567 66.94-32.428-.82-.567zm-66.08 32.494l-56.18-38.647-.9.436 56.18 38.647.9-.436zM848.752-81.931l56.173 38.648.9-.436-56.173-38.647-.9.436zm56.211 38.146l-66.944 32.428.824.567 66.943-32.428-.823-.567zM838.881-11.29l-56.173-38.647-.9.436 56.173 38.647.9-.436zm403.079 199.887l56.17 38.647.9-.436-56.17-38.647-.9.436zm56.21 38.146l-66.94 32.428.82.567 66.94-32.429-.82-.566zm-66.08 32.494l-56.17-38.647-.9.436 56.17 38.646.9-.435zM904.925-43.284l56.172 38.647.9-.436-56.172-38.646-.9.436zm56.21 38.146L894.191 27.29l.824.567 66.944-32.428-.824-.567zm-66.082 32.494l-56.172-38.647-.9.436 56.172 38.647.9-.436zm403.077 199.887l56.17 38.647.9-.436-56.17-38.647-.9.436zm56.21 38.145l-66.94 32.429.82.567 66.95-32.429-.83-.567zm-66.08 32.494l-56.17-38.646-.9.435 56.17 38.647.9-.436zM961.097-4.637l56.173 38.647.9-.436-56.173-38.647-.9.436zm56.213 38.145l-66.946 32.429.824.567 66.942-32.429-.82-.567zm-66.084 32.494l-56.173-38.646-.9.435 56.173 38.647.9-.436zM1354.3 265.89l56.18 38.646.9-.436-56.18-38.646-.9.436zm56.22 38.145l-66.95 32.428.83.567 66.94-32.428-.82-.567zm-66.09 32.494l-56.17-38.647-.9.436 56.17 38.647.9-.436zm-327.16-302.52l56.17 38.647.9-.436-56.17-38.646-.9.436zm56.21 38.146l-66.94 32.428.82.567 66.94-32.428-.82-.567zm-66.08 32.494l-56.174-38.647-.9.436 56.174 38.647.9-.436zm403.08 199.887l56.17 38.647.9-.436-56.17-38.647-.9.436zm56.21 38.146l-66.95 32.428.83.567 66.94-32.429-.82-.566zm-66.08 32.493l-56.18-38.646-.9.436 56.18 38.646.9-.436zM1073.44 72.656l56.17 38.647.9-.436-56.17-38.647-.9.436zm-9.87 70.64l-56.17-38.647-.9.436 56.17 38.646.9-.435zm403.08 199.887l56.17 38.647.9-.436-56.17-38.647-.9.436zm-9.87 70.639l-56.17-38.647-.9.436 56.17 38.647.9-.436zM870.295-224.08l56.172 38.646.9-.436-56.172-38.646-.9.436zm56.21 38.145l-66.944 32.428.824.567 66.944-32.428-.824-.567zm-66.082 32.494l-56.172-38.647-.9.436 56.172 38.647.9-.436zM1197.42 78.94l66.94-32.428-.82-.567-66.94 32.428.82.567zm66.08-32.494l56.17 38.647.9-.436-56.17-38.647-.9.436zm56.21 38.146l-66.94 32.428.82.567 66.95-32.429-.83-.566zm-66.08 32.493l-56.17-38.646-.9.436 56.17 38.646.9-.436zM926.467-185.434l56.173 38.647.9-.436-56.173-38.647-.9.436zm56.211 38.146l-66.944 32.428.824.567 66.944-32.429-.824-.566zm-66.082 32.493l-56.173-38.646-.9.436 56.173 38.646.9-.436zM1319.67 85.093l56.18 38.647.9-.436-56.18-38.647-.9.436zm56.22 38.145l-66.95 32.429.83.566 66.94-32.428-.82-.567zm-66.09 32.494l-56.17-38.647-.9.436 56.17 38.647.9-.436zM982.64-146.787l56.17 38.647.9-.436-56.17-38.647-.9.436zm56.21 38.145l-66.944 32.429.824.566 66.94-32.428-.82-.567zm-66.082 32.494l-56.172-38.647-.9.436 56.172 38.647.9-.436zM1375.85 123.74l56.17 38.646.9-.436-56.17-38.646-.9.436zm56.21 38.145l-66.95 32.428.83.567 66.94-32.428-.82-.567zm-66.08 32.494l-56.18-38.647-.9.436 56.18 38.647.9-.436zM1038.81-108.14l56.17 38.646.9-.436-56.17-38.646-.9.436zm56.21 38.145l-66.94 32.428.82.567 66.95-32.428-.83-.567zm-66.08 32.494l-56.172-38.647-.9.436 56.172 38.647.9-.436zm403.08 199.887l56.17 38.647.9-.436-56.17-38.647-.9.436zm56.21 38.146l-66.94 32.428.82.567 66.94-32.429-.82-.566zm-66.08 32.493l-56.17-38.646-.9.436 56.17 38.646.9-.436zM1094.98-69.494l56.18 38.647.9-.436-56.18-38.647-.9.436zm56.22 38.146L1084.25 1.08l.83.567 66.94-32.429-.82-.566zm-66.09 32.493L1028.94-37.5l-.9.436 56.17 38.646.9-.436zm403.08 199.888l56.17 38.647.9-.436-56.17-38.647-.9.436zm56.21 38.145l-66.94 32.429.82.566 66.95-32.428-.83-.567zm-66.08 32.494l-56.17-38.647-.9.436 56.17 38.647.9-.436zM1151.16-30.847L1207.33 7.8l.9-.436-56.17-38.647-.9.436zm56.21 38.145l-66.95 32.429.83.567 66.94-32.429-.82-.567zm-66.08 32.494l-56.18-38.647-.9.436 56.18 38.647.9-.436zm403.07 199.888l56.18 38.646.9-.436-56.18-38.646-.9.436zm56.22 38.145l-66.95 32.428.83.567 66.94-32.428-.82-.567zm-66.09 32.494l-56.17-38.647-.9.436 56.17 38.647.9-.436zM1207.33 7.799l56.17 38.647.9-.436-56.17-38.646-.9.436zm-9.87 70.64l-56.17-38.647-.9.436 56.17 38.647.9-.436zm403.08 199.887l56.17 38.647.9-.436-56.17-38.647-.9.436zm-9.87 70.639l-56.18-38.646-.9.436 56.18 38.646.9-.436zM190.123 170.777l-66.943 32.429.823.567 66.944-32.429-.824-.567zm270.915 264.876l66.944-32.429-.824-.567-66.943 32.429.823.567zm122.293 5.651l-66.944 32.428.824.567 66.944-32.428-.824-.567zm-337.035-231.88l-66.944 32.428.824.567 66.944-32.428-.824-.567zm393.208 270.527l-66.944 32.428.824.567 66.943-32.429-.823-.566zm-337.036-231.88l-66.943 32.428.823.567 66.944-32.429-.824-.566zm393.208 270.526l-66.944 32.429.824.566 66.944-32.428-.824-.567zm-337.035-231.88l-66.944 32.429.824.567 66.944-32.429-.824-.567zm393.208 270.527l-66.944 32.428.824.567 66.943-32.428-.823-.567zm-337.036-231.88l-66.943 32.428.823.567 66.944-32.428-.824-.567zm393.208 270.527l-66.944 32.428.824.567 66.944-32.429-.824-.566zm-337.035-231.88l-66.944 32.428.824.567 66.944-32.429-.824-.566zm393.208 270.526l-66.944 32.429.824.566 66.943-32.428-.823-.567zM324.011 105.921l-66.944 32.428.824.567 66.944-32.429-.824-.566zm270.915 264.875l66.944-32.429-.824-.566-66.944 32.428.824.567zm122.293 5.651l-66.944 32.429.824.566 66.943-32.428-.823-.567zm-337.036-231.88l-66.943 32.429.823.566 66.944-32.428-.824-.567zm393.208 270.527l-66.944 32.428.824.567 66.944-32.428-.824-.567zm-337.035-231.88l-66.944 32.428.824.567 66.944-32.428-.824-.567zM829.564 453.74l-66.944 32.429.824.567 66.943-32.429-.823-.567zM492.528 221.861l-66.943 32.428.824.567 66.943-32.429-.824-.566zm393.208 270.526l-66.944 32.429.824.566 66.944-32.428-.824-.567zm-337.035-231.88l-66.944 32.429.824.566 66.944-32.428-.824-.567zm393.208 270.527l-66.944 32.428.824.567 66.944-32.428-.824-.567zm-337.035-231.88l-66.944 32.428.824.567 66.943-32.428-.823-.567zM998.081 569.68l-66.944 32.429.824.567 66.944-32.429-.824-.567zM457.899 41.064l-66.944 32.428.824.567 66.943-32.428-.823-.567zm270.915 264.875l66.944-32.428-.824-.567-66.944 32.428.824.567zm122.292 5.651l-66.944 32.429.824.567 66.944-32.429-.824-.567zM514.071 79.71l-66.944 32.429.824.567 66.944-32.429-.824-.567zm393.208 270.527l-66.944 32.428.824.567 66.944-32.428-.824-.567zm-337.035-231.88L503.3 150.785l.824.567 66.943-32.428-.823-.567zm393.207 270.527l-66.944 32.428.824.567 66.944-32.429-.824-.566zm-337.035-231.88l-66.944 32.428.824.567 66.944-32.428-.824-.567zM1019.62 427.53l-66.94 32.429.824.567 66.946-32.429-.83-.567zM682.589 195.65l-66.944 32.429.824.567 66.943-32.429-.823-.567zM1075.8 466.177l-66.95 32.428.83.567 66.94-32.428-.82-.567zm-337.039-231.88l-66.944 32.428.824.567 66.944-32.428-.824-.567zm393.209 270.527l-66.95 32.428.83.567 66.94-32.429-.82-.566zM591.786-23.793L524.842 8.635l.824.567 66.944-32.428-.824-.567zm270.915 264.875l66.944-32.428-.824-.567-66.944 32.428.824.567zm122.293 5.652l-66.944 32.428.824.567 66.944-32.429-.824-.566zM647.959 14.854l-66.944 32.428.824.567 66.944-32.429-.824-.566zM1041.17 285.38l-66.947 32.429.823.566 66.944-32.428-.82-.567zM704.131 53.5l-66.944 32.43.824.567 66.944-32.429-.824-.567zm393.209 270.527l-66.94 32.428.82.567 66.94-32.428-.82-.567zM760.304 92.147l-66.944 32.428.824.567 66.944-32.428-.824-.567zm393.206 270.527l-66.94 32.428.82.567 66.95-32.429-.83-.566zm-337.034-231.88l-66.944 32.428.824.567L817.3 131.36l-.824-.566zM1209.68 401.32l-66.94 32.429.82.566 66.95-32.428-.83-.567zM872.649 169.44l-66.944 32.429.824.566 66.944-32.428-.824-.567zm393.211 270.527l-66.95 32.428.83.567 66.94-32.428-.82-.567zM725.674-88.65L658.73-56.22l.824.566 66.944-32.428-.824-.567zm270.915 264.875l66.941-32.428-.82-.567-66.945 32.429.824.566zm122.291 5.652l-66.94 32.428.82.567 66.95-32.428-.83-.567zM781.846-50.003l-66.944 32.428.824.567 66.944-32.428-.824-.567zm393.204 270.526l-66.94 32.429.82.567 66.95-32.429-.83-.567zM838.019-11.357l-66.944 32.429.824.567 66.944-32.429-.824-.567zM1231.23 259.17l-66.95 32.428.83.567 66.94-32.428-.82-.567zM894.191 27.29l-66.943 32.428.823.567 66.944-32.428-.824-.567zM1287.4 297.817l-66.94 32.428.82.567 66.94-32.428-.82-.567zM950.364 65.937L883.42 98.365l.824.567 66.944-32.428-.824-.567zm393.206 270.526l-66.94 32.429.82.567 66.95-32.429-.83-.567zm-337.03-231.88l-66.947 32.429.823.567 66.944-32.429-.82-.567zm393.2 270.527l-66.94 32.428.82.567 66.95-32.428-.83-.567zM859.561-153.507l-66.943 32.429.823.567 66.944-32.429-.824-.567zm270.919 264.876l66.94-32.429-.82-.567-66.95 32.429.83.567zm122.29 5.651l-66.94 32.428.82.567 66.94-32.428-.82-.567zM915.734-114.86L848.79-82.432l.824.567 66.944-32.428-.824-.567zm393.206 270.527L1242 188.095l.82.567 66.95-32.429-.83-.566zM971.906-76.213l-66.943 32.428.823.567 66.944-32.428-.824-.567zm393.204 270.526l-66.94 32.429.82.566 66.95-32.428-.83-.567zm-337.03-231.88L961.135-5.138l.824.567L1028.9-37l-.82-.567zm393.21 270.527l-66.95 32.428.83.567 66.94-32.428-.82-.567zM1084.25 1.08l-66.94 32.428.82.567 66.95-32.428-.83-.567zm393.21 270.527l-66.94 32.428.82.567 66.94-32.429-.82-.566zm-337.04-231.88l-66.94 32.428.82.567 66.95-32.428-.83-.567zm393.21 270.526l-66.94 32.429.82.566 66.95-32.428-.83-.567zM993.449-218.363l-66.944 32.428.824.567 66.944-32.429-.824-.566zM1264.36 46.512l66.95-32.429-.83-.566-66.94 32.428.82.567zm122.3 5.651l-66.95 32.429.83.566 66.94-32.428-.82-.567zm-337.04-231.88l-66.942 32.429.824.566 66.948-32.428-.83-.567zM1442.83 90.81l-66.94 32.428.82.567 66.94-32.428-.82-.567zm-337.04-231.88l-66.94 32.428.82.567 66.95-32.428-.83-.567zM1499 129.456l-66.94 32.429.82.567 66.95-32.429-.83-.567zm-337.03-231.879l-66.95 32.428.83.567 66.94-32.429-.82-.566zm393.2 270.526l-66.94 32.429.82.566L1556 168.67l-.83-.567zm-337.03-231.88l-66.94 32.429.82.566 66.94-32.428-.82-.567zm393.21 270.527l-66.95 32.428.83.567 66.94-32.428-.82-.567zM1274.31-25.13l-66.94 32.428.82.567 66.95-32.428-.83-.567zm393.21 270.526l-66.94 32.429.82.567 66.94-32.429-.82-.567zM.475 197.271l-.824-.567-.9.436.824.567.9-.436zM786.89 738.324l-.9.436.824.567.9-.436-.824-.567zm150.798-995.051l.9-.436-.823-.566-.9.436.823.566zM1724.1 284.327l.83.566.9-.436-.83-.566-.9.436zM1.299 197.838l66.944-32.429-1.648-1.133-66.944 32.428 1.648 1.134zm56.249 37.644L1.375 196.835l-1.8.872 56.173 38.647 1.8-.872zm393.207 270.526l-56.172-38.646-1.8.871 56.172 38.647 1.8-.872zM113.72 274.128l-56.172-38.646-1.8.872L111.92 275l1.8-.872zm393.208 270.527l-56.173-38.647-1.8.872 56.173 38.647 1.8-.872zm-337.035-231.88l-56.173-38.647-1.8.872 56.173 38.647 1.8-.872zM563.1 583.302l-56.172-38.647-1.8.872 56.172 38.646 1.8-.871zm-337.035-231.88l-56.172-38.647-1.8.872 56.172 38.646 1.8-.871zm393.208 270.526L563.1 583.302l-1.8.871 56.173 38.647 1.8-.872zm-337.035-231.88l-56.173-38.646-1.8.871 56.173 38.647 1.8-.872zm393.207 270.527l-56.172-38.647-1.8.872 56.172 38.647 1.8-.872zM338.41 428.715l-56.172-38.647-1.8.872 56.172 38.647 1.8-.872zm393.208 270.527l-56.173-38.647-1.8.872 56.173 38.646 1.8-.871zm-337.035-231.88l-56.173-38.647-1.8.872 56.173 38.646 1.8-.871zM853.01 705.329l-66.943 32.428 1.647 1.134 66.944-32.428-1.648-1.134zm-65.22 32.559l-56.172-38.646-1.8.871 56.172 38.647 1.8-.872zM135.187 132.981l66.943-32.428-1.647-1.134-66.944 32.428 1.648 1.134zm851.711 507.491l-66.944 32.429 1.648 1.133 66.944-32.428-1.648-1.134zM269.074 68.124l66.944-32.428-1.648-1.134-66.944 32.428 1.648 1.134zm851.716 507.491l-66.95 32.429 1.65 1.133 66.94-32.428-1.64-1.134zM402.962 3.267l66.944-32.428-1.648-1.134-66.944 32.429 1.648 1.133zM1254.67 510.76l-66.94 32.428 1.65 1.134 66.94-32.429-1.65-1.133zM536.849-61.59l66.944-32.428-1.647-1.133-66.944 32.428 1.647 1.133zm851.711 507.492l-66.94 32.428 1.64 1.134 66.95-32.429-1.65-1.133zM670.737-126.446l66.944-32.429-1.648-1.133-66.944 32.428 1.648 1.134zm851.713 507.491l-66.95 32.428 1.65 1.134 66.95-32.428-1.65-1.134zM804.625-191.303l66.943-32.428-1.647-1.134-66.944 32.428 1.648 1.134zm851.715 507.491l-66.95 32.429 1.65 1.133 66.94-32.428-1.64-1.134zM68.243 165.409l66.944-32.428-1.648-1.134-66.944 32.429 1.648 1.133zm851.711 507.492l-66.944 32.428 1.648 1.134 66.944-32.429-1.648-1.133zM202.13 100.553l66.944-32.429-1.648-1.133-66.943 32.428 1.647 1.134zm851.71 507.491l-66.942 32.428 1.648 1.134 66.944-32.429-1.65-1.133zM336.018 35.696l66.944-32.429-1.648-1.133-66.944 32.428 1.648 1.134zm851.712 507.491l-66.94 32.428 1.64 1.134 66.95-32.428-1.65-1.134zM469.906-29.161l66.943-32.428-1.647-1.134-66.944 32.428 1.648 1.134zM1321.62 478.33l-66.95 32.429 1.65 1.133 66.94-32.428-1.64-1.134zM603.793-94.018l66.944-32.428-1.648-1.134-66.943 32.428 1.647 1.134zM1455.5 413.473l-66.94 32.429 1.65 1.133 66.94-32.428-1.65-1.134zM737.681-158.875l66.944-32.428-1.648-1.134-66.944 32.429 1.648 1.133zm851.709 507.492l-66.94 32.428 1.65 1.134 66.94-32.429-1.65-1.133zM871.568-223.731l66.944-32.429-1.647-1.133-66.944 32.428 1.647 1.134zm65.22-32.56l56.173 38.647 1.8-.872-56.173-38.647-1.8.872zM1330 14.236l56.17 38.647 1.8-.872-56.17-38.647-1.8.872zm-337.039-231.88l56.169 38.647 1.8-.872-56.169-38.647-1.8.872zM1386.17 52.882l56.17 38.647 1.8-.872-56.17-38.646-1.8.871zm-337.04-231.879l56.18 38.646 1.8-.872-56.18-38.646-1.8.872zm393.21 270.526l56.17 38.647 1.8-.872-56.17-38.647-1.8.872zm-337.03-231.88l56.17 38.647 1.8-.872-56.17-38.647-1.8.872zm393.2 270.527l56.18 38.647 1.8-.872-56.18-38.647-1.8.872zm-337.03-231.88l56.17 38.647 1.8-.872-56.17-38.647-1.8.872zm393.21 270.527l56.17 38.646 1.8-.872-56.17-38.646-1.8.872zm-337.04-231.88l56.17 38.646 1.8-.872-56.17-38.646-1.8.872zm393.21 270.526l56.17 38.647 1.8-.872-56.17-38.647-1.8.872zm-337.04-231.88L1330 14.236l1.8-.872-56.18-38.647-1.8.872zm393.21 270.527l56.17 38.647 1.8-.872-56.17-38.647-1.8.872zm56.25 37.644l-66.94 32.428 1.64 1.134 66.95-32.429-1.65-1.133z" fill="url(#paint0_radial_3153_7797)" mask="url(#a)"/><defs><radialGradient id="paint0_radial_3153_7797" cx="0" cy="0" r="1" gradientUnits="userSpaceOnUse" gradientTransform="matrix(-1186.3789 410.00908 -388.82644 -1125.08602 1340.53 102.248)"><stop stop-color="#2C4051"/><stop offset=".064" stop-color="#2C4051"/><stop offset=".329" stop-color="#2C4051" stop-opacity=".2"/><stop offset=".553" stop-color="#2C4051"/><stop offset="1" stop-color="#2C4051" stop-opacity="0"/></radialGradient></defs></svg>